<svg xmlns="http://www.w3.org/2000/svg" width="100%" viewBox="0 0 66 20" fill="none"
    class="dash-side__logo-wordmark">
    <path
        d="M9.67499 19.3499C4.32499 19.3499 0.899994 15.4249 0.899994 10.0499C0.899994 4.6749 4.32499 0.774902 9.67499 0.774902C15.025 0.774902 18.45 4.6749 18.45 10.0499C18.45 15.4249 15.025 19.3499 9.67499 19.3499ZM3.77499 10.0499C3.77499 13.7249 5.44999 16.9749 9.67499 16.9749C13.9 16.9749 15.575 13.7249 15.575 10.0499C15.575 6.3749 13.9 3.1499 9.67499 3.1499C5.44999 3.1499 3.77499 6.3749 3.77499 10.0499Z"
        fill="currentColor"></path>
    <path
        d="M25.7115 19.3499C21.8365 19.3499 19.9115 17.3499 19.8365 14.7499H22.3115C22.4115 16.2249 23.3115 17.3749 25.6865 17.3749C27.8365 17.3749 28.4115 16.4249 28.4115 15.4999C28.4115 13.8999 26.7115 13.7249 25.0615 13.3749C22.8365 12.8499 20.2865 12.1999 20.2865 9.5499C20.2865 7.3499 22.0615 5.8749 25.1365 5.8749C28.6365 5.8749 30.3115 7.7499 30.4865 9.9499H28.0115C27.8365 8.9749 27.3115 7.8499 25.1865 7.8499C23.5365 7.8499 22.8365 8.4999 22.8365 9.4499C22.8365 10.7749 24.2615 10.8999 26.0615 11.2999C28.4115 11.8499 30.9615 12.5249 30.9615 15.3749C30.9615 17.8499 29.0615 19.3499 25.7115 19.3499Z"
        fill="currentColor"></path>
    <path
        d="M40.5435 10.8249C40.5435 9.1249 40.1935 7.9749 38.3186 7.9749C36.4936 7.9749 35.3435 9.2499 35.3435 11.1749V18.9999H32.8935V6.2499H35.3435V7.8499H35.3935C36.0685 6.8749 37.2435 5.8749 39.1685 5.8749C40.9435 5.8749 42.0435 6.6749 42.5435 8.0999H42.5935C43.5185 6.8749 44.8185 5.8749 46.7685 5.8749C49.3435 5.8749 50.6436 7.4249 50.6436 10.1499V18.9999H48.1936V10.8249C48.1936 9.1249 47.8435 7.9749 45.9685 7.9749C44.1435 7.9749 42.9935 9.2499 42.9935 11.1749V18.9999H40.5435V10.8249Z"
        fill="currentColor"></path>
    <path
        d="M59.0281 19.3749C55.0531 19.3749 52.6531 16.6249 52.6531 12.6249C52.6531 8.6499 55.0531 5.8499 59.0531 5.8499C63.0031 5.8499 65.4031 8.6249 65.4031 12.5999C65.4031 16.5999 63.0031 19.3749 59.0281 19.3749ZM55.2031 12.6249C55.2031 15.2749 56.4031 17.3499 59.0531 17.3499C61.6531 17.3499 62.8531 15.2749 62.8531 12.6249C62.8531 9.9499 61.6531 7.8999 59.0531 7.8999C56.4031 7.8999 55.2031 9.9499 55.2031 12.6249Z"
        fill="currentColor"></path>
</svg>